<?xml version="1.0" encoding="utf-8"?>
<!-- Generator: Adobe Illustrator 26.1.0, SVG Export Plug-In . SVG Version: 6.00 Build 0)  -->
<svg version="1.1" id="Layer_1" xmlns="http://www.w3.org/2000/svg" xmlns:xlink="http://www.w3.org/1999/xlink" x="0px" y="0px"
	 viewBox="0 0 205.8 47.1" style="enable-background:new 0 0 205.8 47.1;" xml:space="preserve">
<style type="text/css">
	.st0{fill:#FED136;}
</style>
<path class="st0" d="M25.9,5.8c0,1.9-1,3.4-2.1,3.9c-2.5-2.1-4.3-3.1-6.1-3.1c-1.1,0-1.9,0.9-1.9,2.3c0,1.5,0.8,3.4,3.6,7.3
	c4,5.7,4.7,7.7,4.7,10.5c0,5.4-5,11.9-13,11.9C3.7,38.7,0,34.3,0,29.1c0-3.5,1.9-7.6,5.2-7.6c0.8,0,1.5,0.2,2,0.8v0.9
	c0,6.5,3,9.4,6.2,9.4c1.8,0,3.3-1.7,3.3-4.1c0-1.6-0.3-2.9-4.7-8.5C9.3,16.7,8.5,14,8.5,11c0-5.3,4.1-11,10.2-11
	C23.9,0,25.9,3,25.9,5.8z M185.2,14.5c0.6,0.4,0.9,1.3,0.9,2c0,1.8-1.2,3.2-2.8,3.2c-1.1,0-2.1,0-3-0.1c1.8,1,3.1,3.4,3.1,6.8
	c0,8.6-7.3,20.8-13.6,20.8c-3.3,0-4.8-1.5-4.8-4.2c0-1.8,0.2-3.1,2.9-11.1c0.1-0.3,0.2-0.6,0.3-1c-2.5,2.4-5.4,4.4-7.2,4.4
	c-2.1,0-3.4-0.9-3.4-3.9c0-0.5,0-1.1,0.1-1.9c-1.5,4.4-3.7,5.6-5.4,5.6c-2.3,0-4-1.6-4.6-4.6c-2.7,2.9-6.4,5.6-8.9,5.6
	c-2.9,0-4.6-1.3-4.6-4c0-3.2,2.3-7.2,2.3-8.5c0-0.6-0.5-0.9-1.6-1.3c-1.3,2.4-2.3,4-3.5,5.5c-2.8,4.2-9.5,9.5-15.9,9.5
	c-5.3,0-8.8-2.8-9.8-8c-2.9,3.2-7.5,6.2-11.5,6.2c-3.7,0-5.8-1.8-6.6-5.1c-2.7,2.9-6.5,5.7-9,5.7c-2.9,0-4.6-1.3-4.6-4
	c0-3.2,2.3-7.2,2.3-8.5c0-0.6-0.5-0.9-1.6-1.3c-1.4,2.6-2.4,4.2-3.8,5.8c-2.5,3.4-7.2,7.3-9.7,7.3c-2.1,0-3.4-0.9-3.4-3.9
	c0-0.5,0-1.1,0.1-1.9c-1.5,4.4-3.7,5.6-5.4,5.6c-2.3,0-4-1.6-4.6-4.6C45.7,33.3,42,36,39.5,36c-2.8,0-3.8-1.2-3.8-3.9
	c0-3.2,2.5-8.7,2.5-9.7c0-0.4-0.1-0.8-0.7-0.8c-0.8,0-2,0.5-3.3,1.6c-0.5,3.4-0.8,7-0.9,11.4c-0.4,0.5-1.2,0.7-2.2,0.7
	c-2.8,0-4.8-2.5-4.9-5c0-1.5,0.4-3.2,1.6-5.3C29.8,7.6,31.8,0,37.9,0C39.9,0,41,1,41,3.4c0,2.1-1.1,4.9-4.8,11.1L35.1,19
	c3.4-3.2,6.4-4.7,8.3-4.7c1.8,0,2.8,1.1,2.8,2.8c0,1.5-0.4,3-1.1,4.8c-0.8,2.1-2.4,6-2.4,7.2c0,0.5,0.2,0.7,0.7,0.7
	c0.7,0,2.9-1.7,5.4-4.8c1.4-6,6.3-11.3,10.3-11.3c0.7,0,1,0.1,1.2,0.3l0.1-2.8c0.4-0.4,1-0.6,1.7-0.6c3.3,0,5,2.2,5,3.9
	c0,0.6-0.1,1.8-0.5,3.2c-1.7,6-2.3,9.1-2.3,10.3c0,1,0.2,1.1,0.6,1.1c0.8,0,2.5-1.1,4.7-3.8c1.2-1.7,2.1-2.9,2.9-4.8
	c-0.4-0.4-0.7-1.1-0.7-2c0-3.4,5-8.1,7.7-8.1c1.6,0,2.7,0.8,2.7,2.1c0,0.3,0,0.7-0.1,1c-1.1,0.6-2.2,1.3-2.8,2.4
	c0.5,0.3,1.4,0.6,2.3,0.9c2.8,0.8,3.4,1.5,3.4,2.6c0,1-0.5,2.1-1.3,3.6c-1.1,2.2-2.1,4.6-2.1,5.7c0,0.7,0.2,1.1,0.8,1.1
	c1,0,3.3-1.8,5.5-4.5c0.9-6.5,6.2-12.7,10.4-12.7c3.3,0,5.1,1.6,5.1,4.9c0,4-2.3,7.1-8.9,8.6c0,2.2,0.4,3.4,2.3,3.4
	c2.8,0,6.3-2.1,9-5.3c0.6-11.7,10-24.2,18.1-24.2c4.7,0,6.7,2.4,6.7,6.5c0,4.5-2.8,9.2-6.2,9.2c-1.2,0-1.7-0.3-2-0.9
	c0.8-1.8,1.2-5.1,1.2-6.1c0-2.2-0.7-3-1.6-3c-2.6,0-7.8,9.2-7.8,17.5c0,4.6,1.3,6.8,5.5,6.8c3.9,0,8.8-3,11.7-7.3
	c0.5-0.7,0.9-1.5,1.2-2.4c-0.4-0.4-0.7-1.1-0.7-2c0-3.4,5-8.1,7.7-8.1c1.6,0,2.7,0.8,2.7,2.1c0,0.3,0,0.7-0.1,1
	c-1.2,0.6-2.2,1.3-2.8,2.4c0.5,0.3,1.4,0.6,2.3,0.9c2.8,0.8,3.4,1.5,3.4,2.6c0,1-0.5,2.1-1.3,3.6c-1.1,2.2-2.1,4.6-2.1,5.7
	c0,0.7,0.2,1.1,0.8,1.1c1.1,0,3.5-2,5.7-4.8c1.4-6,6.3-11.4,10.3-11.4c0.7,0,1,0.1,1.2,0.3l0.1-2.8c0.4-0.4,1-0.6,1.7-0.6
	c3.3,0,5,2.2,5,3.9c0,0.6-0.1,1.8-0.5,3.2c-1.7,6-2.3,9.1-2.3,10.3c0,1,0.2,1.1,0.6,1.1c0.9,0,3.4-1.8,6.3-5.9c0.4-1.6,0.8-3,1-4.1
	c-0.9,0-1.3-0.4-1.3-1.2c0-1.3,1-2.8,2.1-2.9c0.2-1.7,0.5-5,0.7-6.9c0.7-6.7,1.4-7.5,3.9-7.5c2.5,0,5.5,3,5.5,6
	c0,1.5-1.1,3.8-3.6,8.2C180.2,14.8,184.6,14.6,185.2,14.5z M94.6,22.8c2.7-0.5,3.3-2,3.3-3.4c0-1-0.4-1.6-1-1.6
	C96.3,17.8,95,19.4,94.6,22.8z M60,17.2c-2.4,1.5-4.7,5.5-4.7,9.2c0,1.8,0.6,2,1.2,2c0.7,0,1.3-0.5,1.9-1.2L60,17.2z M159.3,17.2
	c-2.4,1.5-4.7,5.5-4.7,9.2c0,1.8,0.6,2,1.2,2c0.7,0,1.3-0.5,1.9-1.2L159.3,17.2z M178.5,27.3c0-2.3-0.6-3.9-1.4-4.6
	c-1.1,6.7-3.8,14.8-4.8,17.3c0,0.1-0.1,0.3-0.1,0.4c0,0.3,0.2,0.5,0.6,0.5C174.5,40.8,178.5,32.4,178.5,27.3z M203.9,22.8
	c-3.3,4.6-6.6,6.9-8.5,6.9c-1,0-1.3-0.5-1.3-1.7c0-0.7,0.4-3.4,1.7-8.7c1.4,0.2,2.4,0.3,3.5,0.3c1.6,0,2.8-1.4,2.8-3.2
	c0-0.7-0.3-1.6-0.9-2c-0.6,0.1-2.6,0.3-4.1,0.3c1.6-5.1,3.4-7.5,3.4-9c0-1.1-0.8-1.6-1.9-1.6c-3.2,0-5.7,4.5-8.1,10.8
	c-2,0-3,1.4-3,2.9c0,1.1,0.8,1.1,1.8,1.2c-1.8,6.1-2.3,9-2.3,10.4c0,4.4,2.5,6.3,6.2,6.3c5.5,0,12.8-8.6,12.8-11.4
	C205.8,23.5,204.8,22.8,203.9,22.8z"/>
</svg>
